<?xml version="1.0" standalone="no"?>
<!DOCTYPE svg PUBLIC "-//W3C//DTD SVG 20010904//EN" "http://www.w3.org/TR/2001/REC-SVG-20010904/DTD/svg10.dtd">
<svg version="1.0" xmlns="http://www.w3.org/2000/svg"
    width="600.000000pt" height="303.000000pt" viewBox="0 0 600.000000 303.000000"
    fill="#fff"
    preserveAspectRatio="xMidYMid meet">
    <metadata>
Created by potrace 1.16, written by Peter Selinger 2001-2019
</metadata>
    <g transform="translate(0.000000,303.000000) scale(0.100000,-0.100000)"
        stroke="none">
        <path d="M0 3002 c0 -23 10 -34 57 -62 96 -58 223 -162 319 -261 231 -238 374
-510 446 -849 19 -90 22 -136 22 -315 0 -179 -3 -225 -22 -315 -72 -339 -215
-611 -446 -849 -96 -99 -223 -203 -319 -261 -47 -28 -57 -39 -57 -62 l0 -28
88 0 c479 0 974 289 1242 725 58 94 134 270 162 374 22 84 22 85 31 51 145
-551 560 -969 1097 -1104 142 -36 224 -46 380 -46 156 0 238 10 380 46 537
135 952 553 1097 1104 9 34 9 33 31 -51 91 -345 335 -669 654 -872 219 -139
510 -227 751 -227 l87 0 0 28 c0 23 -10 34 -57 62 -96 58 -223 162 -319 261
-231 238 -374 510 -446 849 -19 90 -22 136 -22 315 0 179 3 225 22 315 72 339
215 611 446 849 96 99 223 203 319 261 47 28 57 39 57 62 l0 28 -87 0 c-417 0
-866 -227 -1138 -575 -122 -156 -221 -350 -267 -524 -22 -84 -22 -85 -31 -51
-145 551 -560 969 -1097 1104 -142 36 -224 46 -380 46 -156 0 -238 -10 -380
-46 -537 -135 -952 -553 -1097 -1104 -9 -34 -9 -33 -31 51 -91 345 -335 669
-654 872 -219 139 -510 227 -750 227 l-88 0 0 -28z m405 -91 c455 -118 840
-478 993 -926 57 -167 75 -281 75 -470 0 -189 -18 -303 -75 -470 -153 -448
-538 -808 -993 -926 -93 -25 -240 -50 -228 -39 4 4 37 29 73 56 322 243 553
619 641 1044 21 101 24 142 24 335 0 193 -3 234 -24 335 -88 425 -319 801
-641 1044 -36 27 -69 52 -73 56 -12 11 135 -14 228 -39z m2788 38 c315 -47
597 -186 816 -401 584 -576 584 -1490 0 -2066 -356 -350 -870 -491 -1354 -371
-456 114 -836 449 -1004 884 -209 542 -77 1141 340 1553 213 209 481 344 789
397 94 16 318 18 413 4z m2632 3 c-6 -5 -39 -31 -75 -58 -322 -243 -553 -619
-641 -1044 -21 -101 -24 -142 -24 -335 0 -193 3 -234 24 -335 88 -425 319
-801 641 -1044 36 -27 69 -52 73 -56 12 -11 -135 14 -228 39 -455 118 -840
478 -993 926 -57 167 -75 281 -75 470 0 189 18 303 75 470 120 354 388 658
726 824 141 70 258 108 422 136 41 7 77 13 80 14 2 1 0 -3 -5 -7z"
            class="kid"
        />
    </g>
    <style type="text/css">
.kid {
    animation: walking 20s infinite;
}
@keyframes walking {
    0% {
        fill: #7e0fff;
      }
    
      25% {
        fill: #0fffc1;
      }
    
      50% {
        fill: #7e0fff;
    
      }

      75% {
        fill: #0fffc1;}

    100% {
    fill: #7e0fff;
    }
}
</style>
</svg>